<?xml version="1.0" encoding="UTF-8" standalone="no"?>
<!-- Created by diasvg.py -->
<svg width="22.000cm" height="20.650cm" viewBox="5.000 8.150 22.000 20.650"
 xmlns="http://www.w3.org/2000/svg"
 xmlns:xlink="http://www.w3.org/1999/xlink">
<!-- Layer: Background -->
<g id="Background">
<!-- Flowchart - Box -->
<rect x="5.050" y="8.200" width="21.900" height="13.150" fill="#FFFFFF" stroke="#000000" stroke-width="0.100" stroke-dasharray="0.10,0.10" rx="0.000" />
<text x="16.000" y="18.239"  fill="#000000" text-anchor="middle" font-size="1.54" font-family="sans" font-style="normal" font-weight="700">
CPU</text>
<!-- Flowchart - Box -->
<rect x="5.797" y="8.727" width="10.387" height="1.900" fill="#FFFFFF" stroke="#000000" stroke-width="0.100"  rx="0.000" />
<text x="10.991" y="9.872"  fill="#000000" text-anchor="middle" font-size="0.80" font-family="sans" font-style="normal" font-weight="400">
STACK POINTER</text>
<!-- Flowchart - Box -->
<rect x="17.334" y="8.799" width="8.474" height="1.900" fill="#FFFFFF" stroke="#000000" stroke-width="0.100"  rx="0.000" />
<text x="21.571" y="9.944"  fill="#000000" text-anchor="middle" font-size="0.80" font-family="sans" font-style="normal" font-weight="400">
PROGRAM COUNTER</text>
<!-- Flowchart - Box -->
<rect x="5.497" y="11.118" width="20.747" height="1.900" fill="#FFFFFF" stroke="#000000" stroke-width="0.100"  rx="0.000" />
<text x="15.871" y="12.263"  fill="#000000" text-anchor="middle" font-size="0.80" font-family="sans" font-style="normal" font-weight="400">
REGISTERS</text>
<!-- Standard - Text -->
<!-- Standard - Text -->
<!-- Flowchart - Box -->
<rect x="20.100" y="26.800" width="6.400" height="1.900" fill="#FFFFFF" stroke="#000000" stroke-width="0.100"  rx="0.000" />
<text x="23.300" y="27.945"  fill="#000000" text-anchor="middle" font-size="0.80" font-family="sans" font-style="normal" font-weight="400">
MEMORY</text>
<!-- Flowchart - Box -->
<rect x="5.050" y="26.800" width="5.350" height="1.900" fill="#FFFFFF" stroke="#000000" stroke-width="0.100"  rx="0.000" />
<text x="7.725" y="27.945"  fill="#000000" text-anchor="middle" font-size="0.80" font-family="sans" font-style="normal" font-weight="400">
IO</text>
<!-- Flowchart - Box -->
<rect x="6.150" y="13.350" width="7.000" height="5.467" fill="#FFFFFF" stroke="#000000" stroke-width="0.100"  rx="0.000" />
<text x="9.650" y="16.278"  fill="#000000" text-anchor="middle" font-size="0.80" font-family="sans" font-style="normal" font-weight="400">
CACHE</text>
<!-- Flowchart - Box -->
<rect x="20.250" y="17.783" width="6.250" height="2.850" fill="#FFFFFF" stroke="#000000" stroke-width="0.100"  rx="0.000" />
<text x="23.375" y="19.003"  fill="#000000" text-anchor="middle" font-size="0.80" font-family="sans" font-style="normal" font-weight="400">
SIMD</text>
<text x="23.375" y="19.803"  fill="#000000" text-anchor="middle" font-size="0.80" font-family="sans" font-style="normal" font-weight="400">
REGISTERS</text>
<!-- Flowchart - Box -->
<rect x="13.914" y="13.350" width="4.773" height="3.449" fill="#FFFFFF" stroke="#000000" stroke-width="0.100"  rx="0.000" />
<text x="16.300" y="15.270"  fill="#000000" text-anchor="middle" font-size="0.80" font-family="sans" font-style="normal" font-weight="400">
MULTICORE</text>
<!-- Flowchart - Box -->
<rect x="20.518" y="13.881" width="6.200" height="2.700" fill="#FFFFFF" stroke="#000000" stroke-width="0.100"  rx="0.000" />
<text x="23.618" y="15.026"  fill="#000000" text-anchor="middle" font-size="0.80" font-family="sans" font-style="normal" font-weight="400">
BRANCH</text>
<text x="23.618" y="15.826"  fill="#000000" text-anchor="middle" font-size="0.80" font-family="sans" font-style="normal" font-weight="400">
PREDICTOR</text>
<!-- Flowchart - Box -->
<rect x="13.050" y="23.200" width="5.850" height="2.050" fill="#FFFFFF" stroke="#000000" stroke-width="0.100"  rx="0.000" />
<text x="15.975" y="24.420"  fill="#000000" text-anchor="middle" font-size="0.80" font-family="sans" font-style="normal" font-weight="400">
GPU</text>
<!-- Flowchart - Box -->
<rect x="14.759" y="26.850" width="2.583" height="1.900" fill="#FFFFFF" stroke="#000000" stroke-width="0.100"  rx="0.000" />
<text x="16.050" y="27.995"  fill="#000000" text-anchor="middle" font-size="0.80" font-family="sans" font-style="normal" font-weight="400">
DMA</text>
<!-- Standard - Line -->
<line x1="7.827" y1="26.601" x2="10.423" y2="21.549" stroke="#000000" stroke-width="0.100" />
<polyline fill="none" stroke="#000000" stroke-width="0.100"  points="7.782,26.142 7.776,26.701 8.227,26.370 "/>
<polyline fill="none" stroke="#000000" stroke-width="0.100"  points="10.468,22.008 10.474,21.449 10.023,21.780 "/>
<!-- Standard - Line -->
<line x1="16.040" y1="26.627" x2="15.985" y2="25.473" stroke="#000000" stroke-width="0.100" />
<polyline fill="none" stroke="#000000" stroke-width="0.100"  points="15.772,26.251 16.045,26.738 16.271,26.227 "/>
<polyline fill="none" stroke="#000000" stroke-width="0.100"  points="16.253,25.849 15.980,25.362 15.754,25.873 "/>
<!-- Standard - Line -->
<line x1="14.535" y1="27.797" x2="10.624" y2="27.753" stroke="#000000" stroke-width="0.100" />
<polyline fill="none" stroke="#000000" stroke-width="0.100"  points="14.144,28.043 14.647,27.799 14.150,27.543 "/>
<polyline fill="none" stroke="#000000" stroke-width="0.100"  points="11.015,27.507 10.512,27.751 11.009,28.007 "/>
<!-- Standard - Line -->
<line x1="17.565" y1="27.796" x2="19.876" y2="27.754" stroke="#000000" stroke-width="0.100" />
<polyline fill="none" stroke="#000000" stroke-width="0.100"  points="17.948,27.539 17.453,27.798 17.958,28.039 "/>
<polyline fill="none" stroke="#000000" stroke-width="0.100"  points="19.493,28.011 19.988,27.752 19.484,27.511 "/>
<!-- Standard - Line -->
<line x1="23.229" y1="26.588" x2="21.546" y2="21.562" stroke="#000000" stroke-width="0.100" />
<polyline fill="none" stroke="#000000" stroke-width="0.100"  points="22.869,26.299 23.264,26.694 23.343,26.140 "/>
<polyline fill="none" stroke="#000000" stroke-width="0.100"  points="21.906,21.851 21.511,21.456 21.432,22.010 "/>
<!-- Standard - Line -->
<line x1="15.997" y1="21.574" x2="15.978" y2="22.976" stroke="#000000" stroke-width="0.100" />
<polyline fill="none" stroke="#000000" stroke-width="0.100"  points="16.242,21.965 15.998,21.462 15.742,21.958 "/>
<polyline fill="none" stroke="#000000" stroke-width="0.100"  points="15.733,22.585 15.977,23.088 16.233,22.592 "/>
</g>
</svg>